<?xml version="1.0" encoding="UTF-8" standalone="no"?>
<!-- Generator: Adobe Illustrator 25.2.0, SVG Export Plug-In . SVG Version: 6.00 Build 0) -->

<svg
   version="1.1"
   id="Layer_1"
   x="0px"
   y="0px"
   viewBox="0 0 1588.15 1606.71"
   style="enable-background:new 0 0 1588.15 1606.71;"
   xml:space="preserve"
   sodipodi:docname="stormtrooper.svg"
   inkscape:version="1.2.1 (9c6d41e410, 2022-07-14)"
   xmlns:inkscape="http://www.inkscape.org/namespaces/inkscape"
   xmlns:sodipodi="http://sodipodi.sourceforge.net/DTD/sodipodi-0.dtd"
   xmlns="http://www.w3.org/2000/svg"
   xmlns:svg="http://www.w3.org/2000/svg"><defs
   id="defs38" /><sodipodi:namedview
   id="namedview36"
   pagecolor="#ffffff"
   bordercolor="#000000"
   borderopacity="0.25"
   inkscape:showpageshadow="2"
   inkscape:pageopacity="0.0"
   inkscape:pagecheckerboard="0"
   inkscape:deskcolor="#d1d1d1"
   showgrid="false"
   inkscape:zoom="0.52094032"
   inkscape:cx="794.71675"
   inkscape:cy="804.31478"
   inkscape:window-width="1920"
   inkscape:window-height="1017"
   inkscape:window-x="1912"
   inkscape:window-y="-8"
   inkscape:window-maximized="1"
   inkscape:current-layer="Layer_1" /> <style
   type="text/css"
   id="style21"> .st0{fill:#FFFFFF;} </style> <g
   id="g33"
   style="fill:#ffffff"> <path
   d="M795.12,0C833.06,1.62,871,3.26,908.94,4.83c19.62,0.81,39.27,0.69,58.74,4.01c30.84,5.27,61.74,10.17,92.62,15.23 c12.15,1.99,24.35,3.72,36.44,6.04c21.75,4.17,42.1,12.44,61.96,22.02c11.7,5.64,23.36,11.39,35.16,16.81 c22.38,10.29,42.27,24.01,58.68,42.48c10.4,11.71,20.74,23.47,30.81,35.47c15.15,18.05,26.24,38.42,34.27,60.58 c8.98,24.77,17.21,49.78,21.71,75.75c3.24,18.64,5.15,37.51,7.51,56.3c5.21,41.6,9.51,83.35,20.13,124.08 c2.62,10.05,7.36,18.14,16.66,23.83c5.49,3.36,10.55,4.82,16.85,4.2c9.6-0.95,19.23-1.39,28.71,1.7 c12.43,4.06,20.76,11.99,23.5,24.85c3.05,14.32,5.55,28.76,8.12,43.18c0.46,2.58,0.29,5.34,0.01,7.97 c-1.77,16.79,2.52,31.62,14,44.19c3.82,4.18,7.64,8.37,11.6,12.41c10.4,10.58,13.9,31.35,6.62,44.35 c-4.21,7.51-9.11,14.82-14.72,21.33c-8.23,9.55-12.48,20.36-13.2,32.69c-1.05,17.96-1.78,35.93-2.84,53.88 c-0.44,7.33,2.97,11.72,8.15,16.9c17.68,17.68,39.91,28.82,59.63,43.5c19.59,14.58,34.8,32.64,46.41,54.18 c10.41,19.3,12.52,39.82,11.4,60.99c-1.23,23.32-8.58,45.07-18.87,65.82c-9.77,19.71-20.83,38.63-33.55,56.7 c-34.92,49.62-70.04,99.05-108.91,145.71c-2.99,3.58-5.74,7.4-9.01,10.7c-4.67,4.72-8.02,9.75-7.1,16.78 c0.17,1.26-0.16,2.67-0.58,3.91c-10.5,31.06-14.58,63.55-21.37,95.44c-6.26,29.38-14.39,58.61-28.74,84.94 c-16.41,30.11-36.79,57.73-63.13,80.57c-31.39,27.21-67.73,43.04-108.36,49.86c-53,8.9-106.29,14.33-160.11,12.69 c-24.71-0.75-49.26-3-72.46-12.44c-18.66-7.59-35.08-19.11-51.35-30.71c-17.83-12.71-37.08-22.34-58.33-27.72 c-30.79-7.79-61.45-5.24-91.98,1.74c-2.54,0.58-5.21,1.64-7.25,3.21c-9.73,7.46-19.57,14.83-28.81,22.89 c-14.83,12.94-31.63,21.96-50.31,27.9c-37.32,11.86-75.37,19.78-114.57,21.17c-25.29,0.9-50.6,1.5-75.9,1.24 c-14.62-0.15-28.98-3.02-43.08-7.68c-12.58-4.15-25.74-6.54-38.67-9.58c-14.03-3.3-27.52-8.01-39.9-15.47 c-27.7-16.68-55.53-33.25-78.43-56.56c-15.23-15.5-28.47-32.61-40.39-50.78c-14.73-22.46-22.23-47.56-27.12-73.57 c-3.94-20.93-7.46-41.95-10.79-62.99c-1.5-9.46-1.77-19.11-3.24-28.57c-0.63-4.07-1.85-9.09-4.66-11.55 c-4.58-4-6.6-8.99-9.08-14.02c-3.23-6.57-6.27-13.28-10.05-19.53c-29.75-49.22-63.17-95.62-104.42-136.05 c-8.8-8.62-16.85-18-25.25-27.02C11.23,1037.57-2.5,999.3,0.37,953.12c2.49-39.98,17.48-72.01,46.39-98.16 c8.79-7.95,19.55-13.77,29.63-20.24c9.25-5.94,19.19-10.85,28.05-17.3c6.63-4.83,12.37-11.06,17.86-17.23 c4.73-5.31,6.89-11.8,7.07-19.24c0.24-9.96,1.51-19.91,2.48-29.85c1.6-16.53-4.5-30.7-13.39-43.98 c-5.19-7.75-10.79-15.22-15.95-22.99c-9.55-14.36-8.24-29.16-0.3-43.47c2.43-4.37,6.83-8.38,11.28-10.77 c13.7-7.34,21.7-18.53,24.38-33.49c2.76-15.38,5.78-30.8,7.02-46.33c1.1-13.82,4.1-26.92,9.03-39.7c0.78-2.01,2.4-4.1,4.2-5.23 c3.64-2.27,7.52-4.39,11.59-5.68c5.69-1.81,11.62-2.88,17.48-4.12c22.78-4.8,36.57-19.99,40.05-42.82 c6.68-43.75,13.96-87.41,20.69-131.16c2.22-14.41,6.41-28.6,5.38-43.44c-0.15-2.22,0.93-4.53,1.48-6.79 c4.1-16.81,8.6-33.54,12.23-50.46c4.97-23.16,14.16-44.38,27.73-63.69c25.16-35.8,56.18-65.41,96.05-83.95 c51.74-24.06,105.03-44.18,161.66-53.73c17.7-2.99,35.6-4.86,53.45-6.9c22.11-2.53,44.23-5.05,66.41-6.93 c21.23-1.8,42.51-3.25,63.8-3.97c19.63-0.66,39.3-0.14,58.96-0.14C795.09,0.92,795.11,0.46,795.12,0z M1129.39,1553.68 c13.37-0.86,35.95-2.59,58.55-3.65c10.03-0.47,18.75-3.72,28.1-7.28c65-24.71,105.57-72.23,129.64-135.67 c5.9-15.54,10.58-31.54,16.62-47.02c12.95-33.15,21.19-67.13,22.46-102.91c1.6-45.03-8.68-85.85-38.67-120.6 c-15.39-17.84-33.91-31.24-56.57-37.79c-19.15-5.54-38.62-10.18-58.16-14.13c-40.79-8.26-80.06-20.35-115.17-43.43 c-29.21-19.2-58.32-38.57-87.23-58.22c-10.33-7.02-21.28-12.93-31.05-21.1c-25.29-21.15-51.17-41.69-77.8-61.11 c-20.41-14.88-41.79-28.64-63.73-41.15c-25.53-14.56-53.02-17.58-81.96-10.06c-26.38,6.85-49.87,18.89-70.48,36.24 c-41.84,35.24-85.78,67.73-129.48,100.55c-24.25,18.22-48.82,35.91-75.84,50.03c-44.48,23.25-91.54,39.97-139.11,55.23 c-21.41,6.87-41.84,15.33-61.18,26.65c-52.06,30.45-76.44,77.24-79.33,136.1c-2.29,46.6,7.85,91.12,23.21,134.96 c22.08,63.01,62.86,109.81,120,142.97c9.41,5.46,19.86,9.43,30.23,12.89c9.75,3.25,20.06,4.77,30.06,7.3 c19.06,4.82,38.27,9.06,58.01,8.96c17.63-0.09,35.29-0.85,52.87-2.12c32.62-2.36,64.8-7.54,96.16-17.17 c2.86-0.88,5.76-1.74,8.71-2.16c25.66-3.64,47.34-15.13,65.56-33.29c11.86-11.82,16.68-26.04,14.1-42.83 c-2.68-17.43-4.55-34.89-5.09-52.62c-1-32.76-4.3-65.12-24.1-93.42c-6.56-9.37-8.3-20.55-3.4-32.16c4-9.48,6.23-19.71,10.2-29.21 c17.58-42.08,45.66-75.57,83.76-100.62c12.7-8.35,26.61-11.42,41.83-10.17c18.96,1.56,34.98,7.72,45.01,25.05 c10.85,18.72,21.87,37.35,32.59,56.14c11.24,19.68,16.12,41.61,20.24,63.46c2.59,13.72,0.99,27.83-7.57,40.15 c-2.23,3.21-4.04,7.06-4.8,10.86c-2.39,12.04-4.28,24.18-6.19,36.32c-1.13,7.22-1.52,14.57-2.97,21.72 c-4.18,20.56-8.88,41-8.53,62.2c0.41,24.99,10.81,44.26,32.35,57.19c14.38,8.64,29.84,14.84,46.17,18.59 C1017.65,1548.89,1068.72,1552.7,1129.39,1553.68z M1326.5,405.3c-2.29-24.83-5.2-47.96-6.36-71.18 c-1.47-29.39-5.53-58.48-12.33-86.87c-5.61-23.44-13.58-46.76-23.97-68.48c-10.58-22.15-25-42.78-45.55-57.45 c-18.68-13.33-38.15-25.55-57.25-38.3c-32.72-21.83-68.88-34.61-107.58-40.44c-22.71-3.42-45.45-6.71-68.26-9.33 c-28.76-3.3-57.56-6.51-86.43-8.56c-24.56-1.74-49.24-1.76-73.87-2.56c-2.33-0.08-4.65-0.25-6.98-0.42 c-13.95-0.96-27.89-2.3-41.86-2.83c-49.37-1.88-98.56,1.47-147.63,6.28c-45.15,4.42-89.57,13.47-133.3,25.23 c-30.18,8.12-59.93,18.02-89.47,28.27c-12.45,4.32-24.74,10.34-35.62,17.76c-41.44,28.26-74.84,64.31-97.53,109.17 c-18.01,35.59-29.65,73.37-31.62,113.67c-0.88,17.98-1.47,35.82,1.57,53.75c1.77,10.4,1.38,21.16,2.04,31.75 c0.16,2.51,0.63,4.99,1.03,8.01c7.44,0,14.05,0.2,20.64-0.03c31.68-1.1,62.92-6.12,94.25-10.4c32.32-4.41,64.64-8.81,97.36-9.43 c12.62-0.24,25.27-1.55,37.81-3.12c16.86-2.11,33.67-3.51,50.72-3.35c15.62,0.15,31.28-1.12,46.88-2.22 c30.88-2.18,61.71-5.3,92.62-6.88c28.93-1.48,57.94-1.75,86.92-2.01c22.32-0.2,44.65,0.13,66.97,0.75 c34.96,0.98,69.93,4.01,104.84,3.28c51.15-1.07,101.75,4.49,152.52,8.57c39.49,3.18,79,6.03,118.48,9.18 c20.9,1.67,41.78,3.63,62.67,5.5C1307.41,403.44,1316.6,404.36,1326.5,405.3z M788.35,591.61c-7.59,0.85-15.39,0.87-22.74,2.68 c-32.47,8-61.99,22.18-87.77,43.69c-8.19,6.83-15.68,14.54-24.19,20.91c-37.87,28.36-76.02,56.35-114.01,84.56 c-22.29,16.55-48.04,26.97-71.93,40.69c-33.4,19.17-70.18,30.1-107.1,40.55c-15.29,4.33-30.37,10.04-44.73,16.85 c-19.42,9.2-27.82,25.91-27.22,47.22c0.35,12.47,3.04,24.53,7.94,35.89c7.39,17.11,15.44,33.94,23.36,50.82 c1.55,3.3,3.75,6.29,5.7,9.39c12.2,19.44,24.8,38.65,36.5,58.38c8.59,14.48,22.03,21.15,40.16,14.49 c15.19-5.58,30.11-12.95,43.6-21.88c37.61-24.89,72.07-53.75,103.4-86.33c33.26-34.59,66.58-69.14,100.52-103.05 c27.63-27.6,57.48-52.64,90.81-73.34c12.9-8.01,26.87-11.34,41.71-11.99c33.14-1.45,63.54,7.46,90.37,26.57 c27.88,19.85,56.66,38.83,78.71,65.75c1.05,1.28,2.35,2.36,3.47,3.59c38.08,41.74,81.38,77.83,124.29,114.29 c24.36,20.7,49.26,40.79,74.28,60.7c12.35,9.83,26.5,16.64,42.03,20.11c12.63,2.82,24.1,0.04,33.02-9.35 c5.44-5.72,9.87-12.52,14.05-19.28c5.42-8.77,9.94-18.08,15.18-26.97c10.65-18.08,21.58-36,32.29-54.06 c9.43-15.91,15.64-33.02,19.04-51.23c5.06-27.08-5.62-48.24-30.69-59.35c-7.9-3.5-16.15-6.22-24.21-9.38 c-36.57-14.31-74.52-24.86-110.11-41.93c-50.28-24.12-99.06-50.65-143.82-84.14c-13.86-10.38-27.76-20.71-41.42-31.34 c-21.37-16.62-44.43-30.57-67.69-44.29C859.39,602.06,825.2,592.64,788.35,591.61z M266.18,632.94c6.81,2.2,9.22,7.86,10.28,13.63 c2.52,13.73,5.3,27.54,6.19,41.43c2.2,34.33,14.43,64.55,34.33,92.22c12.11,16.84,29.09,21.13,48.27,20.13 c14.26-0.74,26.83-7.35,39.88-12.36c36.86-14.16,71.44-32.77,104.52-54.09c22.95-14.79,45.23-30.64,67.54-46.41 c19.3-13.64,38.56-27.4,57.24-41.88c30.21-23.42,62.48-43.27,98.11-57.08c11.64-4.51,24.28-7.61,36.69-8.65 c16.87-1.41,33.96-0.47,50.94-0.07c13.79,0.32,27.33,3.04,39.5,9.56c44.33,23.75,88.66,47.51,130.26,75.95 c15.68,10.72,31.45,21.3,47.14,32.01c22.82,15.58,46.52,29.77,68.74,46.35c39.54,29.5,83.09,48.57,134.05,46.5 c11.53-0.47,20.36-4.63,26.62-12.96c7.95-10.58,15.03-22.01,21-33.83c8.74-17.29,13.72-36.04,18.01-54.92 c3.17-13.95,6.53-27.87,10.07-41.73c1.01-3.97,2.96-7.7,4.99-12.82c2.47,3.17,4.25,4.74,5.12,6.71c3.9,8.81,8.26,17.51,11.13,26.66 c11.51,36.66,14.23,74.35,12.43,112.54c-0.82,17.33-4.54,33.09-15.81,47.28c-9,11.33-11.22,25.42-7.49,39.9 c0.94,3.66,2.21,7.21,6.34,8.24c4.52,1.12,7.62-1.59,10.33-4.67c1.31-1.48,2.47-3.21,3.26-5.01c4.52-10.34,10.31-20.38,13.08-31.19 c8.08-31.52,9.5-63.8,7.79-96.2c-1.41-26.6-3.35-53.18-4.75-79.78c-2.35-44.9-4.39-89.81-6.71-134.71 c-0.54-10.54-3.4-13.64-13.78-16.85c-6.68-2.06-13.34-4.14-19.99-6.29c-12.34-3.98-24.46-8.9-37.04-11.89 c-67.54-16.06-136.31-24.01-205.35-29.82c-24.54-2.07-49.14-3.56-73.74-4.98c-32.24-1.86-64.49-4.04-96.76-4.87 c-36.94-0.96-73.91-0.55-110.86-0.85c-8.66-0.07-17.33-1.06-25.96-0.77c-42.6,1.41-85.21,2.82-127.78,4.8 c-33.92,1.58-67.84,3.54-101.69,6.2c-23.21,1.82-46.33,4.88-69.43,7.88c-18.15,2.35-36.13,6.19-54.32,8.06 c-32.12,3.3-64.23,6.14-95.69,14.11c-22.64,5.73-44.77,12.44-66.12,22.13c-10.79,4.9-18.61,10.07-16.5,23.27 c0.1,0.63-0.13,1.32-0.19,1.98c-3.04,29.13-7.32,58.19-8.83,87.4c-2.42,46.89-3.54,93.86-4.11,140.82 c-0.25,20.58,1.73,41.23,3.57,61.77c2,22.35,12.55,41.19,26.49,58.26c5.56,6.81,10.45,6.4,14.96-0.82 c6.31-10.1,3.54-29.85-6.25-36.39c-11.1-7.42-14.98-17.91-16.86-30.24c-2.49-16.38,0.02-32.6,1.01-48.83 c1.15-18.92,3.56-37.77,5.13-56.67c1.71-20.57,2.97-41.18,4.71-61.74C260.42,643.54,260.95,637.41,266.18,632.94z M224.72,1165.04 c-0.28-2.8-0.44-4.78-0.67-6.76c-2.61-22.46-12.06-41.97-25.29-60c-7.67-10.46-15.19-21.09-21.95-32.15 c-20.12-32.95-39.71-66.23-59.81-99.2c-4.3-7.06-9.78-13.42-14.95-19.93c-3.31-4.17-7.37-4.71-12.47-2.61 c-9.79,4.03-16.62,10.84-21.11,20.22c-6.21,12.98-7.42,26.53-6.02,40.84c2.14,21.76,8.53,41.38,22.34,58.77 c8.23,10.37,15.36,21.76,21.86,33.32c25.02,44.51,52.7,87.14,86.54,125.54c5.16,5.85,8.13,5.92,12.39-0.35 c1.12-1.64,2.16-3.41,2.85-5.26c4.44-11.83,9.06-23.59,13-35.58C223.29,1176.26,223.76,1170.18,224.72,1165.04z M1531.43,987.76 c0-3.33,0.36-6.71-0.06-9.98c-2.06-16.13-8.51-30.1-21.56-40.26c-6.32-4.92-9.39-4.43-14.15,2.01 c-5.34,7.22-10.14,14.84-14.94,22.44c-24.36,38.58-47.2,78.15-76.13,113.68c-4.82,5.92-9.32,12.25-13.06,18.89 c-4.88,8.67-9.24,17.69-13.11,26.86c-3.13,7.43-4.06,15.31-1.94,23.45c6.3,24.11,12.32,48.29,18.71,72.37 c0.46,1.73,2.9,3.62,4.74,4.05c1.29,0.3,4.12-1.46,4.56-2.84c3.68-11.54,12.65-19.4,19.49-28.72 c35.24-48.05,72.18-94.98,94.59-151.14C1525.16,1022.07,1532.22,1005.97,1531.43,987.76z M209,819.77 c1.44-15.98,3.09-31.1,4.12-46.27c2.19-32.17,4.02-64.36,6.1-96.54c0.43-6.62,1.82-13.21,1.89-19.83 c0.38-34.95,0.41-69.89,0.74-104.84c0.06-6.63,0.98-13.25,1.41-19.88c0.28-4.39-0.96-8.58-5.77-9.09 c-10.88-1.17-21.85-2.1-32.78-2.08c-3.39,0.01-8.43,2.52-9.88,5.35c-5.43,10.59-10.75,21.45-14.19,32.8 c-10.1,33.38-10.83,68.16-13.86,102.58c-2.52,28.63-1.95,57.18,2.19,85.6c3.23,22.16,9.03,43.63,19.72,63.52 c4.19,7.8,6.58,8.89,15.12,8.31c5.27-0.36,10.58-0.1,15.87-0.03C202.56,819.39,205.44,819.6,209,819.77z M1375.38,596.96 c-0.1,0-0.2,0-0.29,0c0,34.6-0.46,69.21,0.19,103.79c0.34,17.93,2.64,35.83,4.07,53.74c0.79,9.95,1.31,19.94,2.49,29.84 c0.99,8.26,3.2,10.18,11.45,11.07c6.61,0.72,13.25,1.24,19.89,1.43c4.92,0.14,8.93-2.04,11.91-6.16 c7.26-10.06,13.24-20.62,16.45-32.81c4.02-15.26,5.8-30.71,5.85-46.41c0.05-17.99-0.05-35.99,0.05-53.98 c0.13-24.71-1.81-49.26-6.2-73.55c-3.51-19.41-8.65-38.3-20.95-54.47c-8.88-11.68-20.2-16.81-34.81-14.97 c-8.07,1.02-9.99,2.53-10.04,10.52C1375.3,548.99,1375.38,572.97,1375.38,596.96z M329.31,1077.94 c14.53-0.02,17.18-3.14,15.07-16.15c-0.05-0.33-0.17-0.65-0.2-0.98c-1.78-16.99-8.89-31.99-17.68-46.25 c-9.07-14.73-18.52-29.22-27.99-43.7c-10.19-15.58-18.78-32.18-31.1-46.39c-11.99-13.83-23.19-28.33-34.92-42.4 c-5.33-6.39-11-12.49-16.68-18.58c-2.05-2.2-4.42-4-7.9-2.22c-8.38,4.26-14.07,14.91-12.53,24.17 c2.62,15.79,8.69,29.92,19.72,41.82c3.13,3.37,5.68,7.36,8.13,11.29c10.58,16.94,20.14,34.6,31.78,50.76 c11.75,16.31,22.14,33.19,30.53,51.39c4.81,10.42,11.67,19.33,19.89,27.29C312.49,1074.82,320.61,1078.74,329.31,1077.94z M183.62,843.55c-5.85-1.95-10.75-4.3-15.89-5.19c-37.94-6.59-71.42,2.35-98.96,29.95c-32.57,32.63-42.48,73.58-41.8,117.99 c0.17,11.1,7.73,19.09,14.44,27.37c1.34-3.09,1.63-5.91,2.02-8.71c5.11-36.2,20.15-66.7,50.85-88.12 c10.1-7.05,20.47-13.72,30.58-20.76c10.66-7.42,21.38-14.77,31.65-22.7C167.06,865.24,175.97,855.46,183.62,843.55z M1259.06,1053.91c0.2,16.79,10.45,23.4,22.25,16.48c5.85-3.43,11.06-8.6,15.3-13.97c5.11-6.48,9-13.95,13.2-21.12 c11.27-19.23,22.42-38.53,33.64-57.79c1.5-2.57,3.03-5.13,4.7-7.59c4.45-6.56,9.18-12.93,13.4-19.63 c3.54-5.61,6.47-11.62,9.79-17.38c7.64-13.27,15.47-26.44,22.95-39.8c2.09-3.73,3.75-7.85,4.75-12c2.11-8.77-0.03-16.28-7.24-22.37 c-3.52-2.98-6.49-3.28-9.58-0.27c-3.33,3.25-6.56,6.66-9.35,10.37c-21.26,28.17-42.41,56.42-63.57,84.68 c-1.39,1.86-2.6,3.88-3.74,5.91c-10.59,18.83-21.28,37.62-31.66,56.57c-3.83,6.99-7.35,14.22-10.23,21.64 C1261.3,1043.75,1260.05,1050.33,1259.06,1053.91z M1441.52,822.64c-6.14,1.24-18.18,3.51-30.13,6.2c-4.1,0.92-5.14,4.21-3.31,8.75 c2.56,6.35,6.88,11.25,12.65,15.02c24.53,16.01,49.21,31.79,73.37,48.33c10.65,7.29,21.12,15.3,30.03,24.57 c13.51,14.06,24.95,29.72,22.39,51.23c-0.86,7.24-1.18,14.56-1.45,21.86c-0.09,2.56,0.54,5.18,1.12,7.71 c0.72,3.18,2.55,6.14,6.08,4.77c1.8-0.7,3.3-3.78,3.77-6.02c1.83-8.75,3.12-17.62,4.76-26.41c2.15-11.5,2.88-22.93,1.86-34.71 c-2.13-24.49-14.51-44.93-26.67-64.77c-10.91-17.81-26.84-32.19-45.08-43.22C1477.63,827.9,1463.51,822.33,1441.52,822.64z M162.55,1012.95c-0.29,8.3,2.85,12.93,9.04,14.12c7.05,1.35,13.39-1.43,15.09-8.14c3.15-12.42,12.26-19.12,22.82-23.23 c7.5-2.92,12.35-8.61,18.62-12.7c3.75-2.44,4.26-6.58,3.51-10.74c-0.79-4.39-3.51-7.19-7.88-7.92c-3.56-0.59-7.31-1.31-10.8-0.81 c-18.09,2.63-32.1,12.14-42.69,26.77C165.27,997.2,163.28,1005.29,162.55,1012.95z M237.75,1005.49 c-22.86,1.25-48.07,22.34-53.33,45.52c-0.59,2.58-1.27,5.22-1.3,7.84c-0.05,5.73,4.03,10.37,9.4,11.19 c5.58,0.85,10.27-2.17,12.16-7.95c0.41-1.24,0.37-2.63,0.65-3.92c4.59-20.6,22.7-31.86,43.19-26.87c0.65,0.16,1.29,0.35,1.94,0.46 c6.21,1,11.13-1.62,12.79-6.8c1.71-5.32-0.22-11.02-5.76-13.32C251.17,1008.99,244.36,1007.49,237.75,1005.49z M228.31,1117.96 c0,1.15-0.07,2.15,0.01,3.14c0.54,6.42,3.77,10.55,9.06,11.62c4.54,0.92,9.11-1.71,11.98-7.01c0.95-1.75,1.74-3.59,2.5-5.44 c3.87-9.41,11.2-15.52,19.65-20.48c4.49-2.64,8.92-3.42,14.13-0.79c6.17,3.11,11.72,1.23,14.62-3.72 c2.9-4.94,1.59-10.82-3.63-15.02c-6.69-5.37-14.66-7.07-22.58-4.6c-7.17,2.24-14.48,5.38-20.44,9.84 c-7.36,5.52-13.2,13.01-20.04,19.28C229.5,1108.53,227.89,1112.82,228.31,1117.96z M172.56,896.86c-5.8,2.13-13.87,4.26-21.16,7.94 c-16.37,8.26-27.82,21.25-33.6,38.83c-2.15,6.53,0.72,12.29,6.69,14.55c5.04,1.91,10.07-0.23,13.18-5.86 c1.44-2.6,2.27-5.54,3.76-8.11c8.07-13.99,19.43-23.39,36.11-24.65c8.39-0.63,13.1-3.84,13.45-10.09 c0.35-6.21-4.19-10.66-12.15-11.86C177.53,897.41,176.21,897.29,172.56,896.86z M212.26,944.45c-0.13-4.87-3.16-8.85-8.14-9.99 c-2.88-0.66-5.94-1.01-8.87-0.81c-14.72,1.02-27.7,6.52-38.83,16.14c-8.49,7.34-13.84,16.94-18,27.15 c-2.85,7.02-0.25,13.42,5.69,15.8c5.75,2.3,11.17-0.28,14.48-6.93c1.48-2.96,2.86-5.97,4.36-8.91c6.06-11.9,16.5-17.82,28.94-20.74 c3.17-0.75,6.6-0.31,9.9-0.63C208.26,954.89,212.42,950.4,212.26,944.45z M261.4,1041.58c-22.55,0.6-50,22.99-53.64,44.54 c-0.41,2.4,0.22,5.34,1.33,7.54c1.94,3.82,5.49,5.7,9.91,5.38c5.33-0.39,8.51-3.65,10.02-8.42c2.63-8.31,7.49-14.77,14.93-19.27 c7.41-4.49,14.61-8.8,24.19-6.14c5.16,1.43,9.99-2.74,11.26-7.64c1.34-5.18-0.59-10.23-5.68-12.5 C269.87,1043.33,265.53,1042.7,261.4,1041.58z M1378.82,958.41c-2.52,0.6-7.19,0.72-10.62,2.83c-2.58,1.59-5,5.79-4.91,8.74 c0.09,2.96,2.89,6.42,5.45,8.5c1.67,1.35,5.06,0.45,7.64,0.86c8.12,1.3,16.47,1.91,24.25,4.35c9.44,2.96,15.93,9.46,16.36,20.26 c0.01,0.33,0.01,0.67,0.07,0.99c1.15,6.15,5.46,10.22,10.5,9.93c5.46-0.31,9.94-5.34,9.63-11.88 c-0.58-12.52-5.33-23.15-15.61-30.88C1409.44,962.99,1395.38,959.76,1378.82,958.41z M1358.9,992.09 c-5.18,1.03-10.54,1.55-15.5,3.22c-4.52,1.52-6.57,5.58-5.99,10.4c0.56,4.71,4.74,8.21,9.79,8.38c1.97,0.07,4-0.82,5.94-0.61 c8.21,0.88,16.57,1.28,24.53,3.24c7.86,1.94,13.3,6.75,13.66,16.16c0.26,6.95,5.2,11.01,10.78,10.7c5.69-0.31,9.48-4.85,9.43-11.92 c-0.1-14.43-7.24-24.63-19.73-31.19C1381.59,995.12,1370.54,992.93,1358.9,992.09z M1398.59,924.17c-1.83,0.11-4.53,0.02-7.13,0.48 c-5.96,1.06-9.07,4.69-9.02,10.11c0.05,5.67,3.89,9.51,10.19,10.11c0.98,0.09,2-0.16,2.99-0.08c18.36,1.51,36.48,3.1,40.55,26.72 c0.88,5.11,6.01,7.36,10.87,6.55c4.94-0.82,8-4.26,8.25-9.7c0.1-2.29-0.24-4.64-0.64-6.92c-2.12-11.95-9.04-20.53-19.23-26.63 C1424.34,928.19,1412.28,924.8,1398.59,924.17z M1320.9,1061.98c-6.36,1.73-12.93,2.93-19,5.35c-5.5,2.2-7.43,7.49-5.75,12.18 c1.96,5.46,6.55,7.82,12.72,6.42c1.94-0.44,3.8-1.24,5.73-1.7c15.45-3.67,26.1,2.75,29.97,18c0.57,2.25,0.95,4.58,1.82,6.7 c2.3,5.64,6.33,7.86,11.73,6.77c5.11-1.04,7.95-5.2,7.62-11.15C1364.39,1079.83,1346.17,1062.82,1320.9,1061.98z M1341.58,1028.11 c-2.51,0.21-6.16,0.4-9.78,0.85c-1.62,0.2-3.22,0.8-4.75,1.42c-6.7,2.75-9.62,7.47-8.12,12.96c1.62,5.91,6.76,8.37,14.27,6.4 c8.06-2.11,15.85-1.18,23.49,1.61c9.25,3.38,10.93,5.94,11.23,15.97c0.19,6.24,3.02,9.94,8.22,10.77 c5.63,0.9,10.09-2.21,11.58-8.38c2.97-12.28-0.79-22.32-10.62-30.04C1367.06,1031.77,1355.32,1028.66,1341.58,1028.11z M1425.09,887.86c-3.62,0.36-7.36,0.26-10.82,1.2c-4.6,1.26-7.2,4.76-7.04,9.65c0.16,4.87,2.9,8.15,7.61,9.19 c2.51,0.56,5.24,0.18,7.87,0.16c15.38-0.12,26.87,6.13,33.5,20.38c0.98,2.1,1.68,4.37,2.94,6.29c2.88,4.39,7.72,5.92,12.11,4.13 c4.4-1.79,6.88-6.25,6.05-11.34c-0.32-1.93-1.1-3.81-1.82-5.66C1467.27,900.8,1448.59,888.3,1425.09,887.86z"
   id="path23"
   style="fill:#ffffff" /> <path
   class="st0"
   d="M1041.93,1606.22c2.85,0,5.7,0,8.55,0c0.01,0.16,0.01,0.33,0.02,0.49c-2.85,0-5.7,0-8.55,0 C1041.94,1606.54,1041.94,1606.38,1041.93,1606.22z"
   id="path25"
   style="fill:#ffffff" /> <path
   d="M527.83,1511.04c-8.66,0-17.33-0.39-25.97,0.08c-20.23,1.11-40.04-2.04-59.3-7.26c-21.53-5.84-42.14-13.89-58.6-30.56 c-12.7-12.86-25.75-25.17-34.19-41.41c-18.49-35.62-18.85-71.33,2.3-105.64c14.78-23.98,37.68-38.21,64.92-44.91 c8.34-2.05,17.12-3.44,25.67-3.31c14.94,0.23,29.9,1.46,44.77,3.05c14.7,1.57,27.35,8.14,38.05,18.33 c5.55,5.29,10.94,10.74,16.46,16.06c2.88,2.77,5.71,5.63,8.84,8.09c19,14.91,34.38,14.16,53.11-1.15 c14.48-11.83,22.55-27.81,29.98-44.06c13.15-28.78,24.99-58.15,38.17-86.91c6.92-15.1,14.85-29.84,23.48-44.04 c20.29-33.4,50.16-51.82,89.41-53.8c13.28-0.67,26.74-0.92,39.92,0.49c27.17,2.9,49.82,16.23,69.86,34.02 c5.11,4.54,9.1,10.7,12.47,16.75c8.1,14.54,16.02,29.22,23.12,44.26c18.34,38.83,35.99,77.99,54.47,116.75 c3.35,7.02,8.73,13.43,14.33,18.94c8.63,8.49,19.4,10.57,30.27,4.58c8.11-4.47,15.94-9.74,23.04-15.68 c18.1-15.16,38.46-26.24,60.07-35.36c26.36-11.12,52.14-9.17,77.05,3.98c21.57,11.39,39.4,27.27,52.83,47.8 c4.92,7.52,8.92,15.09,8.69,24.85c-0.27,11.9,2.87,23.97,1.82,35.73c-3.6,40.44-23.07,71.8-59.58,89.93 c-37.71,18.73-77.38,32.68-120.06,34.74c-9.49,0.46-19.28-1.05-28.63-3.06c-21.8-4.69-43.84-8.91-65.01-15.71 c-36.26-11.65-58.65-46.16-53.55-85.73c0.75-5.79,3.86-11.25,5.54-16.96c3.36-11.5,6.21-23.16,9.8-34.58 c3.04-9.67,9.29-17,18.92-20.66c3.63-1.38,7.77-1.39,11.68-2.02c5.93-0.95,7.3-3.39,5.11-8.87c-9.26-23.18-17.63-46.76-27.94-69.46 c-15.14-33.34-31.46-66.16-47.8-98.94c-2.87-5.76-8.08-10.46-12.62-15.27c-17.75-18.77-38.04-34.11-64.1-38.25 c-35.99-5.72-68.82,2.75-97.14,26.35c-8.62,7.18-13.68,16.86-18.8,26.73c-10.73,20.7-22.34,40.94-33.69,61.31 c-9.26,16.61-17.01,33.8-23.78,51.64c-6.23,16.42-15.28,31.78-23.1,47.6c-1.17,2.38-2.84,4.61-3.49,7.12 c-1.35,5.21,0.71,8.08,6.03,9.32c0.65,0.15,1.31,0.33,1.97,0.34c17.97,0.28,27.79,11.15,33.82,26.49 c2.42,6.17,4.24,12.63,5.66,19.11c2.34,10.71,5.04,21.47,5.96,32.35c2.44,28.9-5.84,53.68-29.09,72.76 c-17.69,14.52-38.88,18.92-60.32,21.56c-20.1,2.48-40.51,2.39-60.79,3.43C527.86,1511.67,527.85,1511.35,527.83,1511.04z"
   id="path27"
   style="fill:#ffffff" /> <path
   d="M507.06,504.14c33.52-2.75,67.03-5.53,100.55-8.25c21.25-1.73,42.5-3.32,63.75-5.07c10.95-0.9,21.9-1.87,32.81-3.09 c10.27-1.15,20,0.76,29.13,5.16c14.19,6.83,17.93,19.61,10.23,33.27c-3.51,6.23-8.27,10.99-14.52,14.71 c-60.69,36.2-120.29,74.12-178.45,114.29c-4.91,3.39-10.34,6.06-15.66,8.81c-30.46,15.79-60.78,31.88-91.55,47.03 c-10.04,4.95-21.2,7.83-32.06,10.89c-13.8,3.89-26.32,0.21-37.64-8.19c-11.29-8.38-19.64-19.1-24.19-32.35 c-13.21-38.45-25.34-77.25-31.29-117.58c-1.38-9.36-0.43-19.25,0.71-28.74c1.21-10.06,7.72-17.09,17.17-20.33 c7.16-2.46,14.77-4.49,22.27-4.85c29.62-1.43,59.27-2.08,88.91-3.14c6.65-0.24,13.28-1.06,19.93-1.41 c13.28-0.7,26.56-1.26,39.85-1.87C507.02,503.65,507.04,503.9,507.06,504.14z M337.98,540.88c-0.81,0.14-1.61,0.28-2.42,0.42 c-0.31,1.95-0.91,3.9-0.9,5.85c0.13,14.93-0.07,29.89,0.76,44.79c0.55,9.87,2.43,19.69,4.11,29.46c1.01,5.87,3.31,11.55,4.11,17.44 c2.93,21.57,14.68,38.19,29.38,53.12c3.53,3.59,8.04,6.22,13.55,10.38c-0.45-3.18-0.42-4.13-0.73-4.96 c-11.19-29.49-23.03-58.77-27.96-90.2c-0.46-2.92-1.62-5.74-2.48-8.6c-2.86-9.54-5.71-19.07-8.59-28.6 C343.89,560.26,340.93,550.57,337.98,540.88z"
   id="path29"
   style="fill:#ffffff" /> <path
   d="M960.65,494.05c39.93,1.52,79.86,2.97,119.79,4.6c17.63,0.72,35.28,1.36,52.85,2.82c34.46,2.87,68.88,6.16,103.29,9.62 c6.23,0.63,12.41,2.53,18.4,4.46c15.51,5.01,20.95,12.13,21.66,28.49c0.72,16.7-0.38,33.33-4.5,49.57 c-7.05,27.82-15.79,55.12-29.93,80.23c-5.5,9.76-12.42,18.94-19.89,27.32c-9.44,10.6-21.93,14.24-36.22,12.51 c-17.71-2.15-34.43-7.53-50.7-14.48c-3.93-1.68-7.47-4.31-11.09-6.65c-60.36-39.1-118.73-81.33-181.81-116.16 c-15.15-8.37-30.69-16.03-46-24.11c-11.67-6.16-21.3-14.97-29.38-25.17c-8.12-10.26-4.77-22.27,7.46-28.02 c10.73-5.04,22.32-6.42,34.11-6c17.3,0.61,34.61,1.3,51.91,1.96C960.62,494.71,960.64,494.38,960.65,494.05z M1208.64,689.9 c0.79,0.65,1.57,1.3,2.36,1.95c4.73-5.46,10.35-10.39,14.04-16.49c12.38-20.48,24.99-40.8,33.88-63.26 c7.32-18.49,10.09-37.11,6.83-56.63c-1.13-6.75-2.62-13.43-3.95-20.14C1244.96,587.66,1232.44,640.64,1208.64,689.9z"
   id="path31"
   style="fill:#ffffff" /> </g> </svg>
